<svg width="46" height="46" viewBox="0 0 46 46" fill="none" xmlns="http://www.w3.org/2000/svg">
<g clip-path="url(#clip0_2542_5199)">
<path d="M33.15 41H5V12.21L12.19 5H33.15V41Z" fill="#CCE7F9"/>
<path d="M28.0801 20.7106V18.1406H9.98008V20.7106H28.0801Z" fill="#72B5D6"/>
<path d="M19.0298 27.8591V25.2891H9.97978V27.8591H19.0298Z" fill="#72B5D6"/>
<path d="M12.19 5L4.97998 12.21H12.19V5Z" fill="#72B5D6"/>
<path d="M39.3299 28.3009C39.1899 27.8009 38.9899 27.3209 38.7399 26.8709L39.5899 25.1809L38.7499 24.3409L37.9099 23.5009L36.2199 24.3509C35.7699 24.1009 35.2899 23.9009 34.7899 23.7609L34.1899 21.9609H31.8199L31.2199 23.7609C30.7199 23.9009 30.2399 24.1009 29.7899 24.3509L28.0999 23.5009L27.2599 24.3409L26.4199 25.1809L27.2699 26.8709C27.0199 27.3209 26.8199 27.8009 26.6799 28.3009L24.8799 28.9009V31.2709L26.6799 31.8709C26.8199 32.3709 27.0199 32.8509 27.2699 33.3009L26.4199 34.9909L27.2599 35.8309L28.0999 36.6709L29.7899 35.8209C30.2399 36.0709 30.7199 36.2709 31.2199 36.4109L31.8199 38.2109H34.1899L34.7899 36.4109C35.2899 36.2709 35.7699 36.0709 36.2199 35.8209L37.9099 36.6709L38.7499 35.8309L39.5899 34.9909L38.7399 33.3009C38.9899 32.8509 39.1899 32.3709 39.3299 31.8709L41.1299 31.2709V28.9009L39.3299 28.3009Z" fill="#72B5D6"/>
<path d="M33.0099 32.9407C34.5894 32.9407 35.8699 31.6602 35.8699 30.0807C35.8699 28.5012 34.5894 27.2207 33.0099 27.2207C31.4304 27.2207 30.1499 28.5012 30.1499 30.0807C30.1499 31.6602 31.4304 32.9407 33.0099 32.9407Z" fill="#CCE7F9"/>
</g>
<defs>
<clipPath id="clip0_2542_5199">
<rect width="46" height="46" fill="white"/>
</clipPath>
</defs>
</svg>
